HIERARCHY
ROOT root
{
	OFFSET 0.000000 0.000000 0.000000
	CHANNELS 6 Xposition Yposition Zposition Zrotation Yrotation Xrotation
	JOINT lhip
	{
		OFFSET 0.058581 -0.082280 -0.017664
		CHANNELS 3 Zrotation Yrotation Xrotation
		JOINT lknee
		{
			OFFSET 0.043451 -0.386469 0.008037
			CHANNELS 3 Zrotation Yrotation Xrotation
			JOINT lankle
			{
				OFFSET -0.014790 -0.426874 -0.037428
				CHANNELS 3 Zrotation Yrotation Xrotation
				JOINT ltoe
				{
					OFFSET 0.041054 -0.060286 0.122042
					CHANNELS 3 Zrotation Yrotation Xrotation
					End Site
					{
						OFFSET 0.000000 0.000000 0.000000
					}
				}
			}
		}
	}
	JOINT rhip
	{
		OFFSET -0.060310 -0.090513 -0.013543
		CHANNELS 3 Zrotation Yrotation Xrotation
		JOINT rknee
		{
			OFFSET -0.043257 -0.383688 -0.004843
			CHANNELS 3 Zrotation Yrotation Xrotation
			JOINT rankle
			{
				OFFSET 0.019056 -0.420046 -0.034562
				CHANNELS 3 Zrotation Yrotation Xrotation
				JOINT rtoe
				{
					OFFSET -0.034840 -0.062106 0.130323
					CHANNELS 3 Zrotation Yrotation Xrotation
					End Site
					{
						OFFSET 0.000000 0.000000 0.000000
					}
				}
			}
		}
	}
	JOINT lowerback
	{
		OFFSET 0.004439 0.124404 -0.038385
		CHANNELS 3 Zrotation Yrotation Xrotation
		JOINT upperback
		{
			OFFSET 0.004488 0.137956 0.026820
			CHANNELS 3 Zrotation Yrotation Xrotation
			JOINT chest
			{
				OFFSET -0.002265 0.056032 0.002855
				CHANNELS 3 Zrotation Yrotation Xrotation
				JOINT lowerneck
				{
					OFFSET -0.013390 0.211636 -0.033468
					CHANNELS 3 Zrotation Yrotation Xrotation
					JOINT upperneck
					{
						OFFSET 0.010113 0.088937 0.050410
						CHANNELS 3 Zrotation Yrotation Xrotation
						End Site
						{
							OFFSET 0.000000 0.000000 0.000000
						}
					}
				}
				JOINT lclavicle
				{
					OFFSET 0.071702 0.114000 -0.018898
					CHANNELS 3 Zrotation Yrotation Xrotation
					JOINT lshoulder
					{
						OFFSET 0.122921 0.045205 -0.019046
						CHANNELS 3 Zrotation Yrotation Xrotation
						JOINT lelbow
						{
							OFFSET 0.255332 -0.015649 -0.022946
							CHANNELS 3 Zrotation Yrotation Xrotation
							JOINT lwrist
							{
								OFFSET 0.265709 0.012698 -0.007375
								CHANNELS 3 Zrotation Yrotation Xrotation
								End Site
								{
									OFFSET 0.000000 0.000000 0.000000
								}
							}
						}
					}
				}
				JOINT rclavicle
				{
					OFFSET -0.082954 0.112472 -0.023707
					CHANNELS 3 Zrotation Yrotation Xrotation
					JOINT rshoulder
					{
						OFFSET -0.113228 0.046853 -0.008472
						CHANNELS 3 Zrotation Yrotation Xrotation
						JOINT relbow
						{
							OFFSET -0.260127 -0.014369 -0.031269
							CHANNELS 3 Zrotation Yrotation Xrotation
							JOINT rwrist
							{
								OFFSET -0.269108 0.006794 -0.006027
								CHANNELS 3 Zrotation Yrotation Xrotation
								End Site
								{
									OFFSET 0.000000 0.000000 0.000000
								}
							}
						}
					}
				}
			}
		}
	}
}
MOTION
Frames: 13
Frame Time: 0.033333
0.201156 0.736085 0.875137 -27.709239 10.173248 84.028396 -3.194314 -0.507813 -23.322194 -5.804245 5.884914 54.790264 16.553737 18.879287 -38.420455 0.000000 -0.000000 0.000000 0.734973 6.140862 -20.159019 4.087441 7.082436 46.653077 0.371766 -6.595744 -32.917082 0.000000 -0.000000 0.000000 1.533075 -4.168738 27.432351 6.415208 -8.604809 -11.402048 5.018313 -5.571351 4.529796 -2.614554 10.915062 -25.004602 6.070571 15.754229 -14.692505 -13.226577 -22.242176 0.446061 -60.450032 -24.567780 21.579141 -23.964954 -45.341850 37.197439 -10.263467 -10.470210 -17.869357 12.176423 2.467520 2.416466 61.158311 -13.071174 4.457148 -17.765331 12.161318 -6.789163 14.068571 -6.540656 5.162805 
0.177062 0.748950 0.839310 -26.191656 10.130734 84.523692 0.803456 -6.549522 -32.750040 -4.236841 10.846862 71.854365 13.973594 17.753716 -37.382076 0.000000 -0.000000 0.000000 2.172016 8.470188 -28.562741 2.409480 2.641491 61.683732 -0.215873 -9.561110 -34.748938 0.000000 -0.000000 0.000000 0.191670 -3.383898 31.056810 6.654456 -7.768579 -11.202102 4.994965 -5.441814 3.281525 -2.604154 14.485847 -30.288450 4.859334 17.952565 -17.105980 -16.893344 -19.290130 2.504953 -58.339311 -20.024462 15.386930 -14.038778 -41.409771 26.361767 -12.661915 -9.145969 -14.174423 15.381459 2.987291 4.302549 68.075163 -11.626099 6.639751 -18.313999 10.578420 -4.056247 15.053597 -7.423112 5.436563 
0.158492 0.757361 0.818308 -25.519381 10.249868 84.843687 2.887392 -7.000772 -36.879719 -4.611070 10.815185 78.899289 13.413784 17.812912 -37.771056 0.000000 -0.000000 0.000000 2.392488 10.764577 -31.537917 1.735946 -1.182071 66.896802 -2.380242 -11.669122 -37.559388 0.000000 -0.000000 0.000000 -0.785548 -2.638205 33.815079 6.723889 -6.356520 -11.676266 5.246282 -5.054966 3.430459 -2.285935 16.298871 -33.547018 3.895684 16.711423 -17.450052 -17.099158 -18.591362 2.479287 -59.113311 -17.433878 12.412168 -4.171088 -34.604451 16.522654 -12.238952 -7.399134 -10.133243 16.209675 4.855535 4.070225 69.755700 -9.237657 9.672900 -17.439604 13.550840 0.073269 16.737678 -6.128146 1.771600 
0.141656 0.761668 0.807903 -25.086107 10.181057 86.212928 3.402289 -4.544070 -39.065419 -3.863014 9.601174 81.384222 13.391082 17.907784 -40.274183 0.000000 -0.000000 0.000000 3.879970 10.741113 -34.207428 1.143020 -0.946559 70.008778 -2.977292 -12.726737 -39.214843 0.000000 -0.000000 0.000000 -1.241973 -1.541431 33.946672 6.504368 -5.167680 -12.283968 5.655771 -4.684510 3.532504 -2.863386 16.338994 -34.157818 2.794721 15.081230 -17.236016 -17.857035 -19.536798 2.824357 -58.217892 -15.382473 9.278374 0.474200 -26.248232 11.596750 -12.295593 -4.552555 -6.466750 17.753908 7.447780 3.986744 66.436589 -5.331525 9.220731 -18.906237 16.193308 -1.087760 15.708336 -5.258596 0.772793 
0.134368 0.763558 0.810072 -23.475222 9.042441 87.872692 2.935629 -5.893153 -40.239981 -3.670505 10.021814 80.444588 13.635252 19.111635 -40.832124 0.000000 -0.000000 0.000000 2.561346 10.308898 -35.820653 2.039535 -1.214835 70.387465 -2.625542 -13.712597 -39.109844 0.000000 -0.000000 0.000000 -1.065533 -0.756502 33.182555 6.042305 -4.667432 -11.562702 5.189889 -4.455011 3.014850 -3.484208 16.089781 -35.561436 0.676063 13.042134 -16.592535 -18.673748 -19.011124 2.711882 -56.390049 -14.723630 7.306186 3.624682 -20.869028 9.930993 -13.039395 -2.085603 -2.445233 18.912380 8.750225 3.040643 59.917669 0.182293 8.908142 -20.995138 18.130436 -1.346885 15.973798 -5.222810 2.728637 
0.127572 0.764475 0.821866 -22.042212 8.394173 88.532682 3.105839 -6.791801 -39.446384 -4.185033 10.151493 77.680530 13.362524 19.022096 -40.000234 0.000000 -0.000000 0.000000 2.457954 10.605476 -34.868020 1.998193 -1.308746 68.114081 -2.335687 -15.023584 -37.600294 0.000000 -0.000000 0.000000 -0.286603 -0.685106 32.749856 4.690906 -3.879401 -11.225643 4.403694 -3.620148 3.099703 -3.254603 14.497327 -35.760316 0.486663 12.513705 -15.660060 -18.463708 -17.823853 1.877239 -54.184368 -13.064464 4.774584 5.730870 -19.885366 5.641901 -13.477229 -2.232174 -2.775210 16.755102 9.883687 2.104546 55.649731 3.313602 7.760349 -23.155365 24.041112 -4.714828 16.544957 -3.931610 0.064906 
0.121062 0.763213 0.841996 -20.122208 7.625277 88.733765 2.128499 -6.046807 -36.194106 -5.721046 8.321819 71.821041 13.185882 18.021312 -38.813184 0.000000 -0.000000 0.000000 2.759646 8.847477 -32.172700 2.059407 -0.852290 63.736773 -1.816780 -14.961883 -36.044407 0.000000 -0.000000 0.000000 0.389903 -0.025387 32.201683 3.386081 -3.784130 -11.220409 3.645688 -2.820821 2.997074 -2.477107 12.260122 -34.065475 2.502514 10.806773 -14.490622 -17.448308 -17.195872 0.975713 -51.890857 -10.938415 3.268429 5.410857 -20.249390 3.186793 -12.802804 -2.349573 -3.127186 14.839730 10.545833 1.746734 51.167965 3.087017 6.026512 -26.176691 33.393376 -8.118523 16.283893 -1.651241 -1.540799 
0.115190 0.758887 0.869383 -18.247864 6.567258 89.658065 1.092346 -3.981720 -32.119385 -7.276605 6.180889 63.469177 13.432021 16.390416 -37.657908 0.000000 -0.000000 0.000000 3.401087 7.230478 -28.917349 2.097120 1.682645 57.595208 -1.618670 -15.890251 -33.433068 0.000000 -0.000000 0.000000 -0.071968 1.203822 28.569539 2.842042 -3.567085 -10.093611 3.513390 -2.989327 3.501392 -1.093898 10.776470 -31.483318 2.624145 9.989018 -13.118559 -15.927188 -15.632536 -0.093216 -49.886466 -9.840202 2.650591 2.329175 -19.937121 6.288333 -13.117071 -2.624714 -0.772729 12.238750 9.419211 0.919123 47.864203 2.917478 5.747767 -28.408183 41.536525 -8.709867 15.949955 -0.050507 -0.935812 
0.107718 0.751763 0.903420 -15.321646 6.271941 90.041669 1.291919 -1.830089 -26.598398 -9.427552 3.314556 53.758313 12.565204 13.516051 -34.884458 0.000000 -0.000000 0.000000 4.413890 5.201153 -24.292216 1.521488 1.972545 49.948978 -1.336531 -16.598715 -28.806979 0.000000 -0.000000 0.000000 -0.027794 1.713177 25.275767 2.474552 -3.821650 -9.242814 3.336797 -3.104182 3.645222 -0.328650 8.021301 -28.351619 4.043337 8.244712 -11.285836 -14.005471 -14.393756 -0.568934 -48.961848 -8.856490 2.633871 -0.856415 -19.351443 8.657736 -13.261860 -2.798985 -0.314275 9.696252 8.496383 0.388569 46.931018 1.011868 6.185306 -28.720940 47.855365 -8.856970 15.541561 1.704368 -2.363408 
0.102471 0.742667 0.939519 -11.254179 5.656065 89.855067 0.861378 -0.635116 -20.134516 -10.826287 -0.553026 43.579932 10.707196 10.393852 -30.101580 0.000000 -0.000000 0.000000 4.185150 2.605172 -19.070451 0.937472 0.598137 42.229148 -0.614578 -15.169213 -24.410417 0.000000 -0.000000 0.000000 0.350605 1.366945 22.383470 1.776963 -4.520281 -7.761775 2.730691 -2.959425 3.273170 0.151274 5.333842 -25.680481 5.289031 6.209066 -9.057175 -13.575020 -13.697069 -1.404383 -48.156698 -8.601494 3.039894 -1.801645 -17.080186 8.796023 -13.869990 -2.257888 0.688709 8.842693 7.134746 -0.822587 47.266001 -1.797712 7.398150 -27.400026 52.551680 -7.019716 16.663392 2.844925 -3.401008 
0.097575 0.733400 0.973630 -6.448165 4.797381 89.830780 0.326356 -0.102214 -14.963325 -10.952823 -5.008567 35.032706 7.497815 6.212246 -22.561786 0.000000 -0.000000 0.000000 4.709369 0.698240 -13.385043 -0.753020 1.031246 32.930160 0.023084 -13.492469 -20.062028 0.000000 -0.000000 0.000000 0.032689 0.825577 20.251376 1.595713 -5.467297 -7.587601 2.119033 -2.918307 2.830946 -0.326202 2.337997 -20.893523 7.156340 4.317395 -8.717438 -14.027509 -13.092551 -0.950092 -47.008663 -9.348447 2.387193 -2.543415 -14.756441 8.711138 -14.553002 -1.539694 2.963105 8.216242 5.579498 -0.913255 48.980493 -3.925586 8.138724 -22.598205 55.649625 -1.270339 15.811598 2.750851 -3.549451 
0.092761 0.726862 1.002624 -3.515354 3.844789 90.357661 0.013072 -0.006714 -12.335758 -9.582712 -6.430066 28.436240 2.117994 4.182118 -15.675982 0.000000 -0.000000 0.000000 5.021100 1.318886 -10.264299 -1.267525 2.631937 25.670154 0.563852 -12.148153 -17.857093 0.000000 -0.000000 0.000000 -0.620315 1.479219 18.056270 0.773525 -5.396011 -7.247647 1.489968 -2.674236 1.991338 0.061501 0.123977 -16.277564 8.919401 2.188019 -8.947403 -15.579708 -12.085380 -0.927070 -44.809374 -10.562585 2.888673 -3.464782 -13.259190 6.701082 -16.036220 -0.529534 4.507848 9.761003 3.850094 -0.517510 50.171202 -5.157897 9.440579 -16.381382 55.785630 4.558715 14.417027 2.305459 -2.789143 
0.089981 0.722026 1.024377 -1.103013 2.674914 90.789121 -1.625922 -1.435161 -10.495284 -5.727043 -5.165954 22.752340 0.589168 8.928700 -13.657124 0.000000 -0.000000 0.000000 4.759344 1.524979 -9.256053 -1.971292 3.041896 22.135763 1.877789 -12.871983 -18.335334 0.000000 -0.000000 0.000000 -1.440607 2.570127 16.599623 -0.221552 -4.612632 -6.827322 0.790154 -2.137956 1.524830 0.874404 -2.313735 -14.532020 10.609640 -0.690710 -8.359919 -17.944024 -11.178119 -1.210483 -42.216696 -12.523533 3.886889 -4.203212 -12.424923 5.174270 -15.853532 0.573479 5.855177 12.543918 2.730581 -0.448229 51.097283 -5.977811 10.739504 -12.094737 52.760673 6.619906 13.207513 2.515754 -1.852491 
